<svg width="24" height="24" viewBox="0 0 32 32" xmlns="http://www.w3.org/2000/svg">
  <!-- extra margin added so nothing is cut -->
  <g transform="translate(4 2) scale(0.75)">
    <path fill="#FFFFFF" d="M22.27 6.27c-1.2.06-2.65.8-3.51 1.79-.77.9-1.42 2.3-1.24 3.65 1.33.1 2.7-.68 3.53-1.67.82-.98 1.38-2.42 1.22-3.77ZM26.83 21.47c-.15.38-.3.76-.48 1.14-.74 1.53-1.83 3.43-3.33 3.46-1.24.03-1.64-.81-3.41-.81-1.78 0-2.22.78-3.47.84-1.53.07-2.69-1.8-3.45-3.32-.69-1.35-1.22-2.95-1.22-4.64 0-2.72 1.18-5.47 3.22-5.56 1.26-.05 2.13.87 3.58.87 1.43 0 2.14-.87 3.6-.89 1.02-.02 2.53.55 3.34 2.08-2.93 1.6-2.45 5.78.62 6.83Z"></path>
  </g>
</svg>
