<svg width="24" height="24" viewBox="0 0 24 24" fill="white" xmlns="http://www.w3.org/2000/svg">
  <g transform="translate(2 1) scale(0.8)">
    <path d="M16.365 1.43c0 1.14-.42 2.06-1.26 2.86-.94.9-1.98 1.42-3.1 1.33-.06-1.1.42-2.13 1.22-2.9.86-.83 1.95-1.35 3.14-1.29Zm4.36 17.28c-.64 1.42-1.4 2.64-2.28 3.66-.92 1.06-1.86 1.59-2.82 1.61-.72 0-1.59-.21-2.61-.62-1.03-.42-1.98-.63-2.85-.63-.92 0-1.9.21-2.94.63-1.04.41-1.86.62-2.47.64-.94.04-1.92-.49-2.94-1.59C1.36 21.45.63 20.24 0 18.84c-.84-1.86-1.26-3.65-1.26-5.37 0-1.99.43-3.72 1.28-5.18.67-1.18 1.56-2.1 2.66-2.74 1.1-.66 2.28-.99 3.52-.99.69 0 1.6.24 2.74.71 1.13.47 1.86.71 2.18.71.25 0 1.07-.28 2.45-.84 1.31-.51 2.42-.72 3.33-.63 2.47.2 4.33 1.19 5.56 2.98-2.21 1.33-3.31 3.2-3.29 5.6.02 1.87.7 3.43 2.04 4.69-.24.7-.53 1.35-.9 1.98Z"></path>
  </g>
</svg>
